# xmcd
#
# Track frame offsets:
#  150
#  11731
#  23869
#  36993
#  49065
#  66144
#  78171
#  90142
#  102001
#  112432
#  124876
#  139856
#  153499
#  166947
#  178994
#  199150
#
# Disc length: 2824 seconds
#
# Revision: 0
# Processed by: cddbd v1.5.1PL2 Copyright (c) Steve Scherf et al.
# Submitted via: Collectorz.com_Music_Collector 6.9
#
DISCID=d70b0610
DTITLE=Louis Jordan - Five Guys Named Moe
DYEAR=2002
DGENRE=East Coast Blues - Jump Blues - Swing - Urban Blues
TTITLE0=Caldonia
TTITLE1=Beans And Corn Bread
TTITLE2=Ain't Nobody Here But Us Chickens
TTITLE3=Beware Brother Beware
TTITLE4=Blue Light Boogie
TTITLE5=Choo Choo Ch' Boogie
TTITLE6=Let The Good Times Roll
TTITLE7=Reet, Petite and Gone
TTITLE8=School Days (When We Were Kids)
TTITLE9=Buzz Me Again
TTITLE10=Early In The Morning
TTITLE11=Five Guys Named Moe
TTITLE12=G. I. Jive
TTITLE13=Is You Is Or Is You Ain't My Baby
TTITLE14=Saturday Night Fish Fry
TTITLE15=What's The Use Of Getting Sober (When You're Gonna Get Drunk Again)?
EXTD=
EXTT0=
EXTT1=
EXTT2=
EXTT3=
EXTT4=
EXTT5=
EXTT6=
EXTT7=
EXTT8=
EXTT9=
EXTT10=
EXTT11=
EXTT12=
EXTT13=
EXTT14=
EXTT15=
PLAYORDER=
